<svg xmlns="http://www.w3.org/2000/svg" viewBox="0 0 32 32" fill="none">
  <rect width="32" height="32" rx="6" fill="#0A0A0A"/>
  <g stroke="#FFFFFF" stroke-width="2.5" stroke-linecap="round">
    <line x1="3" y1="12" x2="10" y2="12"/>
    <line x1="3" y1="16" x2="10" y2="16"/>
    <line x1="3" y1="20" x2="10" y2="20"/>
    <line x1="22" y1="12" x2="29" y2="12"/>
    <line x1="22" y1="16" x2="29" y2="16"/>
    <line x1="22" y1="20" x2="29" y2="20"/>
    <line x1="8" y1="4" x2="13" y2="11"/>
    <line x1="11" y1="3.5" x2="15" y2="10"/>
    <line x1="24" y1="4" x2="19" y2="11"/>
    <line x1="21" y1="3.5" x2="17" y2="10"/>
    <line x1="8" y1="28" x2="13" y2="21"/>
    <line x1="11" y1="28.5" x2="15" y2="22"/>
    <line x1="24" y1="28" x2="19" y2="21"/>
    <line x1="21" y1="28.5" x2="17" y2="22"/>
  </g>
  <text x="12.5" y="18.5" font-family="Arial Black, sans-serif" font-weight="900" font-size="5.5" fill="#F97316" text-anchor="middle" letter-spacing="-0.3">402</text>
</svg>
